<svg id="Calque_1" data-name="Calque 1" xmlns="http://www.w3.org/2000/svg" viewBox="0 0 145.25 145.25"><defs><style>.cls-1,.cls-3{fill:#fff;}.cls-1,.cls-2{stroke:#f9a826;stroke-miterlimit:10;}.cls-1{stroke-width:6px;}.cls-2{fill:#f9a826;stroke-width:2px;}</style></defs><title>favicon</title><circle class="cls-1" cx="72.63" cy="72.63" r="69.63"/><circle class="cls-2" cx="72.63" cy="72.63" r="62.97"/><path class="cls-3" d="M80,96.1C74,94,63.67,86.38,63.67,77.3c0-6.15,3.72-11.17,14.09-19.44,8.91-7,13.45-11.66,13.45-17.65s-3.89-10.86-11-10.86c-10.69,0-17,10-19.12,10-2.43,0-7-3.73-7-7.62,0-2.27.81-3.89,3.08-6C62.37,21.41,69.66,20,74.68,20c14.74,0,25.76,12.79,25.76,25.43,0,6.8-2.27,12.64-11.5,20.25-8.1,6.8-12.48,9.88-12.48,15.23,0,4.37,2.27,7.29,6.65,11.34Zm-4,33.69c-5.83,0-10-4.21-10-10.37,0-5.83,4-10.36,10-10.36a10.06,10.06,0,0,1,10,10.36C86,125.58,81.65,129.79,76,129.79Z" transform="translate(-2.37 -2.06)"/></svg>